<svg xmlns="http://www.w3.org/2000/svg" xmlns:xlink="http://www.w3.org/1999/xlink" version="1.0" x="0" y="0" width="2400" height="2400" viewBox="139.4 96.49250640869141 61.2 57.014990997314456" preserveAspectRatio="xMidYMid meet" color-interpolation-filters="sRGB"><g><defs><linearGradient id="92" x1="0%" y1="0%" x2="100%" y2="0%"><stop offset="0%" stop-color="#fa71cd"></stop> <stop offset="100%" stop-color="#9b59b6"></stop></linearGradient><linearGradient id="93" x1="0%" y1="0%" x2="100%" y2="0%"><stop offset="0%" stop-color="#f9d423"></stop> <stop offset="100%" stop-color="#f83600"></stop></linearGradient><linearGradient id="94" x1="0%" y1="0%" x2="100%" y2="0%"><stop offset="0%" stop-color="#0064d2"></stop> <stop offset="100%" stop-color="#1cb0f6"></stop></linearGradient><linearGradient id="95" x1="0%" y1="0%" x2="100%" y2="0%"><stop offset="0%" stop-color="#f00978"></stop> <stop offset="100%" stop-color="#3f51b1"></stop></linearGradient><linearGradient id="96" x1="0%" y1="0%" x2="100%" y2="0%"><stop offset="0%" stop-color="#7873f5"></stop> <stop offset="100%" stop-color="#ec77ab"></stop></linearGradient><linearGradient id="97" x1="0%" y1="0%" x2="100%" y2="0%"><stop offset="0%" stop-color="#f9d423"></stop> <stop offset="100%" stop-color="#e14fad"></stop></linearGradient><linearGradient id="98" x1="0%" y1="0%" x2="100%" y2="0%"><stop offset="0%" stop-color="#009efd"></stop> <stop offset="100%" stop-color="#2af598"></stop></linearGradient><linearGradient id="99" x1="0%" y1="0%" x2="100%" y2="0%"><stop offset="0%" stop-color="#ffcc00"></stop> <stop offset="100%" stop-color="#00b140"></stop></linearGradient><linearGradient id="100" x1="0%" y1="0%" x2="100%" y2="0%"><stop offset="0%" stop-color="#d51007"></stop> <stop offset="100%" stop-color="#ff8177"></stop></linearGradient><linearGradient id="102" x1="0%" y1="0%" x2="100%" y2="0%"><stop offset="0%" stop-color="#a2b6df"></stop> <stop offset="100%" stop-color="#0c3483"></stop></linearGradient><linearGradient id="103" x1="0%" y1="0%" x2="100%" y2="0%"><stop offset="0%" stop-color="#7ac5d8"></stop> <stop offset="100%" stop-color="#eea2a2"></stop></linearGradient><linearGradient id="104" x1="0%" y1="0%" x2="100%" y2="0%"><stop offset="0%" stop-color="#00ecbc"></stop> <stop offset="100%" stop-color="#007adf"></stop></linearGradient><linearGradient id="105" x1="0%" y1="0%" x2="100%" y2="0%"><stop offset="0%" stop-color="#b88746"></stop> <stop offset="100%" stop-color="#fdf5a6"></stop></linearGradient></defs><g class="imagesvg isNoFont" transform="translate(140,97.09250450134277)"><g><rect fill="#564dbe" fill-opacity="0" stroke-width="2" x="0" y="0" width="60" height="55.81499190682617" class="image-rect"></rect> <svg x="0" y="0" width="60" height="55.81499190682617" filtersec="colorsb9747796952" class="image-svg-svg primary" style="overflow: visible;"><svg xmlns="http://www.w3.org/2000/svg" viewBox="-0.0028076171875 -0.000354766845703125 185.64190673828125 172.6932373046875"><g><g><path d="M108.57 172.42c-4.23 0-8.48.06-12.73 0-19.35-.32-38.76 1.19-58-.69-22.39-2.2-39.25-23.21-37.75-45.8 1.54-23.1 20.21-41.1 42.73-41.2 25.74-.12 44.4 18.25 45 44A53.64 53.64 0 0 0 106.29 169c.89.76 2.41 1.14 2.28 3.42z" fill="#564dbe"></path><path d="M21.61 79.37c5.15-9 9.57-16.72 14-24.45C42 43.87 48.26 32.73 54.9 21.83 64.76 5.66 79.53-1.86 98.17.39c18.18 2.2 30.48 12.85 36.39 30.28 5.46 16.12.3 35.31-12.75 46.15-14.23 11.8-30.19 14.46-47.31 6.87-6.68-3-13-6.58-20.32-8-10.8-2.23-21.13-.58-32.57 3.68z" fill="#fecc69"></path><path d="M147 50c11.73 20.6 24.09 40.35 34.48 61.09 10.21 20.4.81 45.3-19.33 56-19.88 10.56-45.11 4.14-57.24-14.57-12.39-19.13-8.11-45 9.74-58.71C137.5 76.25 137.5 76.25 147 50z" fill="#fb4969"></path></g></g></svg></svg> </g></g><defs v-gra="od"></defs></g></svg>